PathFileType        4      (X/Y/Z)      C:\Users\pc\Desktop\IMUTRC\Sujet_03\Sujet_03_velo_80.trc         
DataRate	CameraRate	NumFrames	NumMarkers	Units	OrigDataRate	OrigDataStartFrame	OrigNumFrames
60.0	60.0	4	64	mm	60.0	118	936
Frame#	Time	pHipOrigin			pRightASI			pLeftASI			pRightCSI			pLeftCSI			pRightIschialTub			pLeftIschialTub			pSacrum			pL5SpinalProcess			pL3SpinalProcess			pT12SpinalProcess			pIJ			pT4SpinalProcess			pT8SpinalProcess			pPX			pC7SpinalProcess			pTopOfHead			pRightAuricularis			pLeftAuricularis			pBackOfHead			pRightAcromion			pLeftAcromion			pRightArmLatEpicondyle			pRightArmMedEpicondyle			pLeftArmLatEpicondyle			pLeftArmMedEpicondyle			pRightUlnarStyloid			pRightRadialStyloid			pRightOlecranon			pLeftUlnarStyloid			pLeftRadialStyloid			pLeftOlecranon			pRightTopOfHand			pRightPinky			pRightBallHand			pLeftTopOfHand			pLeftPinky			pLeftBallHand			pRightGreaterTrochanter			pRightKneeLatEpicondyle			pRightKneeMedEpicondyle			pRightPatella			pLeftGreaterTrochanter			pLeftKneeLatEpicondyle			pLeftKneeMedEpicondyle			pLeftPatella			pRightTibialTub			pRightLatMalleolus			pRightMedMalleolus			pLeftTibialTub			pLeftLatMalleolus			pLeftMedMalleolus			pRightHeelFoot			pRightFirstMetatarsal			pRightFifthMetatarsal			pRightPivotFoot			pRightHeelCenter			pRightToe			pLeftHeelFoot			pLeftFirstMetatarsal			pLeftFifthMetatarsal			pLeftPivotFoot			pLeftHeelCenter			pLeftToe			
		X1	Y1	Z1	X2	Y2	Z2	X3	Y3	Z3	X4	Y4	Z4	X5	Y5	Z5	X6	Y6	Z6	X7	Y7	Z7	X8	Y8	Z8	X9	Y9	Z9	X10	Y10	Z10	X11	Y11	Z11	X12	Y12	Z12	X13	Y13	Z13	X14	Y14	Z14	X15	Y15	Z15	X16	Y16	Z16	X17	Y17	Z17	X18	Y18	Z18	X19	Y19	Z19	X20	Y20	Z20	X21	Y21	Z21	X22	Y22	Z22	X23	Y23	Z23	X24	Y24	Z24	X25	Y25	Z25	X26	Y26	Z26	X27	Y27	Z27	X28	Y28	Z28	X29	Y29	Z29	X30	Y30	Z30	X31	Y31	Z31	X32	Y32	Z32	X33	Y33	Z33	X34	Y34	Z34	X35	Y35	Z35	X36	Y36	Z36	X37	Y37	Z37	X38	Y38	Z38	X39	Y39	Z39	X40	Y40	Z40	X41	Y41	Z41	X42	Y42	Z42	X43	Y43	Z43	X44	Y44	Z44	X45	Y45	Z45	X46	Y46	Z46	X47	Y47	Z47	X48	Y48	Z48	X49	Y49	Z49	X50	Y50	Z50	X51	Y51	Z51	X52	Y52	Z52	X53	Y53	Z53	X54	Y54	Z54	X55	Y55	Z55	X56	Y56	Z56	X57	Y57	Z57	X58	Y58	Z58	X59	Y59	Z59	X60	Y60	Z60	X61	Y61	Z61	X62	Y62	Z62	X63	Y63	Z63	X64	Y64	Z64	
118	1.95	0.0	1249.98473	7.653948992887842E-14	100.90677000000001	1329.86685	130.59542000000008	80.22867999999998	1331.94621	-143.0715899999999	72.08451	1407.092	109.39749000000009	54.98754999999999	1408.8248	-116.55972999999992	-64.69123	1207.58887	61.39891000000008	-73.23971	1208.45527	-51.579699999999924	-60.35923	1287.64427	4.851840000000083	1.1552	1376.47919	-0.11551999999991579	70.35171	1474.55571	-6.931199999999913	134.98518	1563.27511	-14.208969999999914	404.66674	1595.04313	-29.457609999999928	284.12157	1701.26381	-30.150729999999914	208.16713	1643.85035	-22.584169999999915	304.33758	1512.33077	-19.003049999999927	330.38735	1734.41807	-32.807689999999916	575.34762	1837.34644	-84.50291999999992	514.46855	1777.50705	6.6424000000000785	476.57798	1777.96913	-132.6747799999999	463.52421	1823.71507	-54.17889999999991	336.56767	1730.49039	179.8069600000001	321.03023	1691.73341	-246.3465099999999	431.98724	1446.13778	158.37799000000007	413.15747	1442.38338	100.90677000000005	414.19715	1415.1784	-231.21338999999995	402.58738	1411.53952	-171.83607999999995	514.17975	1203.60343	117.88821000000004	563.79562	1224.22376	121.81590000000004	395.59842	1440.01522	130.30662000000007	510.02103	1176.6295	-212.49913999999995	558.59721	1199.61799	-215.90697999999995	381.50497	1407.84288	-202.04456999999994	715.76225	1114.42195	176.97672	620.80476	1116.27027	145.49751000000003	568.0121	1173.04837	116.73301000000004	686.18911	1079.47713	-312.07742	597.70075	1087.21698	-265.98492	557.84633	1144.34164	-221.39417999999998	29.97745000000001	1217.75463	162.24791000000008	268.12204	886.67416	98.42308000000004	266.10044	892.79673	18.714250000000035	301.5651	918.44218	57.240190000000034	7.393279999999989	1242.76473	-170.3920799999999	342.40144	1008.4323	-227.40121999999997	356.84144	999.13294	-149.30966999999998	373.12977	1041.87535	-185.40967999999998	318.37326	849.93879	50.713300000000025	194.13145	447.46692	81.84596000000002	188.35545	449.6618	15.248650000000017	365.38993	946.80235	-185.46743999999998	33.73185999999999	694.16	-117.88820999999996	51.05986	697.51008	-53.37025999999996	129.6135	376.65313	27.262730000000015	291.68813	347.9464	-25.703209999999995	292.84333	323.68719	52.27282	314.61886	330.56063	10.16576	168.7748	367.75809	23.91265000000001	395.36738	310.34462	2.656959999999995	-35.9845	662.68078	-38.87249999999996	98.30756	553.74537	-36.619859999999974	62.323069999999994	537.68808	-108.12676999999996	96.86356	529.83272	-75.89666999999997	-7.508800000000003	635.36029	-47.07441999999997	154.73911	471.84165	-91.95395999999998	
119	1.967	0.0	1249.98473	7.653948992887842E-14	101.77317000000001	1329.57805	130.0755800000001	79.24675999999998	1332.29277	-143.4181499999999	72.83539	1406.86096	109.22421000000008	54.23665999999999	1409.1136	-116.61748999999992	-64.28691	1207.41559	61.745470000000076	-73.58627	1208.57079	-51.17537999999992	-60.30147	1287.64427	5.313920000000083	1.1552	1376.42143	0.05776000000008421	70.23619	1474.55571	-6.931199999999913	134.8119	1563.39063	-14.382249999999914	404.4357	1595.33193	-30.26624999999993	283.77501	1701.43709	-30.670569999999916	207.93609	1643.96587	-22.988489999999913	304.1643	1512.56181	-19.638409999999926	329.98303	1734.64911	-33.44305999999992	574.88554	1837.86628	-85.08051999999992	513.94871	1777.91137	6.007040000000078	476.23142	1778.31569	-133.4256599999999	463.06213	1824.11939	-54.92978999999991	336.39439	1730.37487	179.34488000000007	320.33711	1692.42653	-246.86634999999993	431.4674	1445.6757	158.84007000000005	412.63763	1441.69026	101.36885000000005	413.33075	1415.64048	-231.55994999999993	401.8365	1412.11712	-172.18263999999994	513.65991	1203.02583	118.81237000000004	563.21802	1223.64616	122.74006000000004	395.07858	1439.43762	130.76870000000005	509.09687	1177.03382	-211.74825999999993	557.61529	1199.96455	-215.15609999999995	380.69633	1408.36272	-202.39112999999995	715.18465	1113.78659	177.84312	620.28492	1115.63491	146.36391000000003	567.4345	1172.47077	117.65717000000004	685.32271	1079.59265	-310.86446	596.83435	1087.44802	-264.88748	556.86441	1144.6882	-220.47001999999998	30.03521000000001	1217.35031	162.30567000000008	254.25964	876.45064	99.52053000000004	251.66043	881.93784	19.75393000000004	288.51133	906.48585	57.70227000000004	6.75791999999999	1243.51561	-170.3920799999999	352.50944	1025.70255	-228.67193999999998	367.75809	1017.26958	-150.58038999999997	381.79377	1060.70512	-186.91144999999997	304.1643	838.73334	51.637460000000026	177.32328	437.18564	84.15636000000002	171.31624	439.265	17.559050000000017	376.42209	964.88124	-186.50711999999996	47.36321999999999	708.08016	-121.70037999999995	63.88259	712.00784	-57.00914999999996	109.74405	369.02881	29.284330000000015	270.25916	334.25727	-24.836809999999996	270.83676	309.24718	52.90818000000001	292.67005	315.60078	10.743360000000001	148.50103	358.57424	25.64545000000001	372.37889	292.26573	2.6569599999999953	-22.006570000000004	675.09919	-42.569139999999955	114.42261	568.8785	-41.06737999999997	78.6114	552.35913	-112.57428999999998	113.38293	545.08137	-80.45971999999998	6.988959999999996	648.3563	-50.944339999999954	172.35592	488.36102	-96.92131999999998	
120	1.983	0.0	1249.98473	7.653948992887842E-14	102.63957000000002	1329.34701	129.55574000000007	78.26483999999999	1332.58157	-143.82246999999992	73.52851	1406.68768	108.99317000000009	53.370259999999995	1409.34464	-116.67524999999992	-63.88258999999999	1207.30007	62.09203000000008	-73.93283	1208.62855	-50.77105999999992	-60.30147	1287.58651	5.833760000000082	1.09744	1376.42143	0.23104000000008423	70.12067	1474.61347	-6.931199999999913	134.58086	1563.44839	-14.613289999999912	404.08914	1595.79401	-31.132649999999927	283.31293	1701.7259	-31.248169999999913	207.58953	1644.13915	-23.392809999999916	303.99102	1512.85061	-20.273769999999924	329.52095	1734.99567	-34.19393999999991	574.30794	1838.38612	-85.83139999999992	513.31335	1778.48897	5.2561600000000785	475.76934	1778.77777	-134.1765399999999	462.48453	1824.58147	-55.738429999999916	336.16335	1730.25935	178.8828000000001	319.47071	1693.17741	-247.44394999999992	430.83204	1445.21362	159.24439000000007	411.94451	1441.0549	101.83093000000005	412.34883	1416.16032	-232.07978999999995	401.20114	1412.81024	-172.64471999999995	513.02455	1202.44823	119.67877000000004	562.64042	1223.12632	123.60646000000004	394.44322	1438.91778	131.17302000000007	508.11495	1177.55366	-210.99737999999994	556.69113	1200.48439	-214.40521999999996	379.82993	1408.99808	-202.91096999999993	714.60705	1113.26675	178.65176	619.64956	1115.11507	147.23031000000003	566.8569	1171.89317	118.52357000000005	684.51407	1079.82369	-309.6515	595.96795	1087.79458	-263.8478	555.94025	1145.15028	-219.60361999999998	30.324010000000012	1216.94599	162.24791000000008	242.13003	868.19096	99.98261000000004	238.95323	873.15832	20.21601000000004	277.01709	896.72441	57.64451000000004	5.949279999999989	1243.86217	-170.3920799999999	361.34672	1042.39519	-229.53833999999998	377.46177	1035.23295	-151.50454999999997	389.18706	1079.01505	-188.18216999999999	291.05277	829.43398	51.81074000000003	158.43575	429.96564	86.81332000000002	151.90887	431.87172	20.331530000000015	386.58786	982.72909	-187.02696999999998	62.323069999999994	719.28561	-125.45477999999996	77.91828	723.67537	-60.59026999999996	87.44868	364.81233	31.652490000000014	245.99995	323.45615	-23.566089999999992	245.76891	297.63742	53.890100000000004	267.71772	303.41342	11.667530000000001	125.68582	352.68272	27.724810000000016	346.27136	276.61277	2.9457599999999955	-6.469120000000003	683.53215	-46.670099999999955	133.13686	581.5857	-46.20801999999997	97.84547999999998	564.77754	-117.94596999999997	132.84806	558.25065	-85.83139999999999	23.277289999999997	657.82894	-55.27634999999996	193.61161	503.43639	-102.92836999999999	
121	2.0	0.0	1249.98473	7.653948992887842E-14	103.39045000000002	1329.17373	129.09366000000009	77.39843999999998	1332.81261	-144.1112699999999	74.16387	1406.5144	108.81989000000009	52.677139999999994	1409.51792	-116.67524999999992	-63.478269999999995	1207.18455	62.38083000000008	-74.22163	1208.68631	-50.36673999999992	-60.24371	1287.58651	6.238080000000083	1.09744	1376.42143	0.4043200000000842	70.06291	1474.61347	-6.9889599999999135	134.46534	1563.50615	-14.844329999999912	403.91586	1596.02505	-31.999049999999926	283.02413	1701.89918	-31.883529999999915	207.35849	1644.25467	-23.797129999999914	303.8755	1513.02389	-20.909129999999926	329.17439	1735.16895	-34.88705999999991	573.90362	1838.79044	-86.64003999999991	512.90903	1778.83553	4.389760000000078	475.48054	1779.06657	-135.0429399999999	462.08021	1824.87027	-56.604829999999914	336.10559	1730.20159	178.3052000000001	318.77759	1693.69725	-248.0793099999999	430.42772	1444.8093	159.53319000000005	411.48243	1440.4773	102.11973000000006	411.59795	1416.44913	-232.59962999999993	400.56578	1413.27232	-173.10679999999994	512.62023	1201.98615	120.37189000000004	562.17834	1222.60648	124.29958000000005	393.98114	1438.4557	131.46182000000005	507.42183	1177.90022	-210.47753999999995	555.99801	1200.83095	-213.88537999999994	379.13681	1409.4024	-203.43080999999995	714.14497	1112.74691	179.40264	619.24524	1114.59523	147.92343000000002	566.39482	1171.43109	119.21669000000004	683.93647	1079.99697	-308.72734	595.33259	1088.02562	-262.9814	555.24713	1145.49684	-218.91049999999998	30.26625000000001	1216.48391	162.24791000000008	231.96427	861.66407	100.56021000000004	228.55642	866.40039	20.79361000000004	267.42892	889.04232	57.87555000000004	5.25615999999999	1243.97769	-170.3343199999999	368.56673	1057.18176	-229.94265999999996	385.3749	1051.348	-151.96662999999998	395.07858	1095.30338	-189.04856999999998	279.90509	821.63637	52.09954000000003	139.1439	425.05603	88.31508000000001	132.27046	427.07763	21.83329000000002	395.71394	998.72861	-187.31576999999996	78.03379999999999	726.56337	-129.38245999999995	92.7626	731.41521	-64.34466999999995	65.21107	363.19505	32.74993000000001	221.74074	315.4275	-22.988489999999995	220.52778	289.08893	54.29442	242.64987	294.28733	12.071850000000003	102.87061	349.44816	28.706730000000015	319.99055	264.1366	3.0612799999999964	10.281279999999997	687.80639	-51.002099999999956	153.52615	590.94283	-52.041779999999974	118.81236999999999	573.84586	-123.95301999999998	153.98823	568.12762	-92.01171999999998	41.00961999999999	663.31614	-60.01266999999996	216.65786	515.85479	-109.80180999999999	
